<?xml version="1.0" encoding="UTF-8"?>
<svg width="30px" height="23px" viewBox="0 0 30 23" version="1.1" xmlns="http://www.w3.org/2000/svg" xmlns:xlink="http://www.w3.org/1999/xlink">
    <!-- Generator: Sketch 51.1 (57501) - http://www.bohemiancoding.com/sketch -->
    <title>company_procedure</title>
    <desc>Created with Sketch.</desc>
    <defs></defs>
    <g id="Symbols" stroke="none" stroke-width="1" fill="none" fill-rule="evenodd">
        <g id="search_result/Company_procedure" transform="translate(-19.000000, -17.000000)" fill="#AAADD1">
            <g id="Company-procedure">
                <g id="titel_icon" transform="translate(19.000000, 17.000000)">
                    <g id="company_procedure">
                        <g id="amdocs_logo">
                            <path d="M17.495,15.9383333 C17.495,17.1441667 16.5133333,18.1258333 15.3075,18.1258333 L6.56166667,18.1258333 C5.355,18.1258333 4.37416667,17.1441667 4.37416667,15.9383333 C4.37416667,14.7325 5.355,13.7508333 6.56166667,13.7508333 L17.495,13.7508333 L17.495,15.9383333 Z M15.3075,0.6275 L2.46666667,0.6275 L3.7325,5.00083333 L15.3075,5.00083333 C16.5133333,5.00083333 17.495,5.9825 17.495,7.18916667 L17.495,9.37666667 L6.56166667,9.37666667 C2.94333333,9.37666667 0,12.32 0,15.9383333 C0,19.5566667 2.94333333,22.5 6.56166667,22.5 L15.3075,22.5 C18.925,22.5 21.8691667,19.5566667 21.8691667,15.9383333 L21.8691667,7.18916667 C21.8691667,3.57083333 18.925,0.6275 15.3075,0.6275 Z" id="Fill-1"></path>
                            <polyline id="Fill-2" points="28.1283333 9.37666667 24.1416667 9.37666667 24.1416667 13.7508333 29.3933333 13.7508333 28.1283333 9.37666667"></polyline>
                        </g>
                    </g>
                </g>
            </g>
        </g>
    </g>
</svg>